<?xml version="1.0" encoding="UTF-8"?>
<svg width="500" height="500" viewBox="0 0 500 500" fill="none" xmlns="http://www.w3.org/2000/svg">
  <!-- Background -->
  <rect width="500" height="500" fill="#1F2937" opacity="0"/>
  
  <!-- Face -->
  <circle cx="250" cy="230" r="150" fill="#F8D3AC"/>
  
  <!-- Hair -->
  <path d="M150 150C150 100 200 70 250 70C300 70 350 100 350 150C350 200 320 210 320 210L300 220C300 220 310 170 300 160C290 150 270 150 250 150C230 150 210 150 200 160C190 170 200 220 200 220L180 210C180 210 150 200 150 150Z" fill="#6B4F33"/>
  
  <!-- Eyebrows -->
  <path d="M200 180C210 175 220 175 230 180" stroke="#6B4F33" stroke-width="5" stroke-linecap="round"/>
  <path d="M300 180C290 175 280 175 270 180" stroke="#6B4F33" stroke-width="5" stroke-linecap="round"/>
  
  <!-- Eyes -->
  <circle cx="215" cy="195" r="10" fill="#422D17"/>
  <circle cx="285" cy="195" r="10" fill="#422D17"/>
  
  <!-- Smile -->
  <path d="M220 230C230 245 270 245 280 230" stroke="#422D17" stroke-width="5" stroke-linecap="round"/>
  
  <!-- Beard -->
  <path d="M210 260C225 280 275 280 290 260C290 260 300 300 250 300C200 300 210 260 210 260Z" fill="#6B4F33"/>
  
  <!-- Shirt -->
  <path d="M150 320C150 320 200 350 250 350C300 350 350 320 350 320L350 420C350 420 300 450 250 450C200 450 150 420 150 420L150 320Z" fill="#2A5599"/>
  
  <!-- Arms - Heart gesture -->
  <path d="M120 360C100 350 80 350 70 370C60 390 80 410 100 420C120 430 140 440 150 450" fill="#F8D3AC"/>
  <path d="M120 360C100 350 80 350 70 370C60 390 80 410 100 420C120 430 140 440 150 450" stroke="#E2AD7C" stroke-width="2"/>
  
  <path d="M380 360C400 350 420 350 430 370C440 390 420 410 400 420C380 430 360 440 350 450" fill="#F8D3AC"/>
  <path d="M380 360C400 350 420 350 430 370C440 390 420 410 400 420C380 430 360 440 350 450" stroke="#E2AD7C" stroke-width="2"/>
  
  <!-- Hands making heart -->
  <path d="M150 450C170 470 200 480 250 480" fill="#F8D3AC"/>
  <path d="M150 450C170 470 200 480 250 480" stroke="#E2AD7C" stroke-width="2"/>
  
  <path d="M350 450C330 470 300 480 250 480" fill="#F8D3AC"/>
  <path d="M350 450C330 470 300 480 250 480" stroke="#E2AD7C" stroke-width="2"/>
</svg>
